<svg id="Isolation_Mode" data-name="Isolation Mode" xmlns="http://www.w3.org/2000/svg" viewBox="0 0 251.34 89.45"><defs><style>.cls-1,.cls-3{fill:#fff}.cls-2{fill:#0094d6}.cls-3{fill-rule:evenodd}</style></defs><title>Vector Smart Object</title><rect class="cls-1" width="251.34" height="89.45" rx="17.74" ry="17.74"/><rect class="cls-2" x="4.25" y="4.25" width="242.84" height="80.95" rx="13.49" ry="13.49"/><path class="cls-3" d="M133.29 360.16v7.69a2.26 2.26 0 0 1-.71 1.75 2.38 2.38 0 0 1-1.63.59 2.43 2.43 0 0 1-1.61-.6 2.24 2.24 0 0 1-.77-1.75v-22.6a2.21 2.21 0 0 1 2.38-2.38h8.79a5.86 5.86 0 0 1 4.3 1.79 6 6 0 0 1 1.79 4.33v5a6 6 0 0 1-1.78 4.33 5.86 5.86 0 0 1-4.31 1.8zm0-12.57v7.85h6.44a1.34 1.34 0 0 0 1-.41 1.3 1.3 0 0 0 .4-1v-5a1.29 1.29 0 0 0-.4-1 1.34 1.34 0 0 0-1-.41zm17.26 21a2.2 2.2 0 0 1-2.21 1.58 2.46 2.46 0 0 1-1.57-.58 2.14 2.14 0 0 1-.8-1.69 2.18 2.18 0 0 1 .18-.87l6.34-19c.4-1.18.78-2.39 1.2-3.58a2.4 2.4 0 0 1 2.2-1.77 2.3 2.3 0 0 1 2.21 1.81l7.59 22.67a2.65 2.65 0 0 1 .11.76 2.13 2.13 0 0 1-.81 1.69 2.46 2.46 0 0 1-1.57.58 3.06 3.06 0 0 1-1-.16 2.19 2.19 0 0 1-1.24-1.45l-1.55-4.67h-7.53l-.7 2.12zm5.33-16l-2.19 6.56h4.39zm15.69 12.89l2.27-20.48a2.19 2.19 0 0 1 2.33-2.08h7.53a2.2 2.2 0 0 1 2.34 2.38v20.26h.2a2.18 2.18 0 0 1 2.34 2.34v2.5a2.26 2.26 0 0 1-.72 1.75 2.38 2.38 0 0 1-1.62.59 2.48 2.48 0 0 1-1.59-.55 2.21 2.21 0 0 1-.79-1.79v-.16h-10.34v.16a2.28 2.28 0 0 1-.72 1.76 2.41 2.41 0 0 1-1.62.58 2.48 2.48 0 0 1-1.58-.55 2.2 2.2 0 0 1-.79-1.79v-2.5a2.2 2.2 0 0 1 2.38-2.34zm9.8-17.91h-3.07l-2 17.91h5.1zm23.24 6.75l-8.17 14.71a2.5 2.5 0 0 1-2.13 1.35 2.17 2.17 0 0 1-1.63-.75 2.6 2.6 0 0 1-.63-1.78v-22.6a2.3 2.3 0 0 1 .71-1.73 2.43 2.43 0 0 1 3.25-.05 2.27 2.27 0 0 1 .77 1.78v13.51l8.14-14.68a2.51 2.51 0 0 1 2.15-1.38 2.13 2.13 0 0 1 1.64.76 2.68 2.68 0 0 1 .6 1.79v22.6a2.26 2.26 0 0 1-.71 1.75 2.46 2.46 0 0 1-3.21 0 2.24 2.24 0 0 1-.76-1.75zm25.74 9.72a6 6 0 0 1-1.79 4.38 5.91 5.91 0 0 1-4.3 1.75h-5a6 6 0 0 1-6.12-6.13V349a6.1 6.1 0 0 1 6.13-6.12h5a5.88 5.88 0 0 1 4.31 1.79 6 6 0 0 1 1.78 4.33zm-4.69 0V349a1.3 1.3 0 0 0-.4-1 1.35 1.35 0 0 0-1-.41h-5a1.36 1.36 0 0 0-1.41 1.4v15.07a1.4 1.4 0 0 0 .4 1 1.32 1.32 0 0 0 1 .4h5a1.32 1.32 0 0 0 1-.42 1.35 1.35 0 0 0 .41-1m83.98 2.83l7.46-22.38a2.43 2.43 0 0 1 2.23-1.79 2.33 2.33 0 0 1 2.25 1.84l7.52 22.42a3 3 0 0 1 .13.83 2.19 2.19 0 0 1-.82 1.72 2.49 2.49 0 0 1-1.61.59 2.15 2.15 0 0 1-2.25-1.64l-1.55-4.61h-7.39l-1.53 4.62a2.24 2.24 0 0 1-2.25 1.61 2.51 2.51 0 0 1-1.6-.58 2.18 2.18 0 0 1-.82-1.72 2.21 2.21 0 0 1 .19-.91m11.79-7.81l-2.1-6.26-2.1 6.26zm-21.18-3.72v-10a2.36 2.36 0 0 1 2.38-2.42 2.4 2.4 0 0 1 1.64.62 2.33 2.33 0 0 1 .74 1.8v22.41a2.31 2.31 0 0 1-.73 1.78 2.5 2.5 0 0 1-3.25 0 2.29 2.29 0 0 1-.78-1.78v-7.57h-6.33a6.12 6.12 0 0 1-6.13-6.13v-8.75a2.34 2.34 0 0 1 .72-1.76 2.47 2.47 0 0 1 3.3-.05 2.3 2.3 0 0 1 .78 1.82V354a1.27 1.27 0 0 0 1.33 1.33zm-52.92 9.98l2.26-20.32a2.23 2.23 0 0 1 2.37-2.12h7.47a2.24 2.24 0 0 1 2.39 2.42v20h.13a2.23 2.23 0 0 1 2.38 2.39v2.48a2.32 2.32 0 0 1-.73 1.78 2.42 2.42 0 0 1-1.65.6 2.51 2.51 0 0 1-1.61-.57 2.24 2.24 0 0 1-.81-1.82v-.1h-10.15v.1a2.31 2.31 0 0 1-.73 1.78 2.42 2.42 0 0 1-1.65.6 2.52 2.52 0 0 1-1.61-.57 2.24 2.24 0 0 1-.81-1.82v-2.48a2.24 2.24 0 0 1 2.42-2.39zm9.71-17.64h-2.94l-2 17.64H257zm29.75 19.25a3 3 0 0 1 .13.84 2.18 2.18 0 0 1-.82 1.72 2.48 2.48 0 0 1-1.6.59 2.94 2.94 0 0 1-1-.18 2.25 2.25 0 0 1-1.23-1.46l-1.51-4.59h-7.42c-.37 1.15-1.18 3.69-1.54 4.57a2.2 2.2 0 0 1-2.23 1.66 2.53 2.53 0 0 1-1.61-.59 2.24 2.24 0 0 1-.62-2.61l7.47-22.4a2.45 2.45 0 0 1 2.24-1.79 2.34 2.34 0 0 1 2.25 1.84zm-7.66-7.88l-2.09-6.26-2.09 6.26z" transform="translate(-103.38 -312.23)"/></svg>