<svg id="Isolation_Mode" data-name="Isolation Mode" xmlns="http://www.w3.org/2000/svg" viewBox="0 0 104.59 104.59"><defs><style>.cls-1{fill:#fff}</style></defs><title>Vector Smart Object2</title><path class="cls-1" d="M662.86 363.13a52.07 52.07 0 0 1-26.08-7l-20.37 7 4.19-21.58a51.69 51.69 0 0 1-10-30.72 52.3 52.3 0 1 1 52.3 52.3zm-25.14-15.57l1.58 1a44.58 44.58 0 1 0-11.5-10.36l1.09 1.4-2.29 11.79z" transform="translate(-610.57 -258.54)"/><path class="cls-1" d="M636.46 290.74s3.07-5.36 5.57-5.67 5.72-.31 6.59 1.33 4.75 11.14 4.75 11.14a3.74 3.74 0 0 1-.36 3.22 31.8 31.8 0 0 1-3.32 3.88 2.84 2.84 0 0 0 0 3.37 61.5 61.5 0 0 0 7.36 9c4.09 4.1 12 7 12 7a2.4 2.4 0 0 0 1.84-.56c.71-.71 4.6-5.57 4.6-5.57a2.73 2.73 0 0 1 3.32-.66c2.07.95 11 5.41 11 5.41a1.94 1.94 0 0 1 1 2c0 1.58-.64 5.46-2 6.77s-5.14 5.35-10.9 5.35-19.46-4.68-26.77-12-13.79-14.71-15.32-21.46-1.25-9.77.64-12.55z" transform="translate(-610.57 -258.54)"/></svg>