<svg id="Isolation_Mode" data-name="Isolation Mode" xmlns="http://www.w3.org/2000/svg" viewBox="0 0 113.52 108.35"><defs><style>.cls-1{fill:#fff;}</style></defs><title>Vector Smart Object1</title><path class="cls-1" d="M151.25,365h-43.5a35.05,35.05,0,0,1-35-35V291.67a35.05,35.05,0,0,1,35-35h43.5a35.05,35.05,0,0,1,35,35V330A35.05,35.05,0,0,1,151.25,365Zm-43.5-100.57a27.26,27.26,0,0,0-27.23,27.23V330a27.26,27.26,0,0,0,27.23,27.23h43.5A27.26,27.26,0,0,0,178.47,330V291.67a27.26,27.26,0,0,0-27.23-27.23Z" transform="translate(-72.74 -256.66)"/><path class="cls-1" d="M129.5,342a31.16,31.16,0,1,1,31.16-31.16A31.2,31.2,0,0,1,129.5,342Zm0-54.55a23.38,23.38,0,1,0,23.38,23.38A23.41,23.41,0,0,0,129.5,287.45Z" transform="translate(-72.74 -256.66)"/><circle class="cls-1" cx="87.45" cy="23.97" r="6.47"/></svg>