<svg id="Isolation_Mode" data-name="Isolation Mode" xmlns="http://www.w3.org/2000/svg" viewBox="0 0 55.96 51.84"><defs><style>.cls-1{fill:#fff;}</style></defs><title>Vector Smart Object4</title><path class="cls-1" d="M636.46,290.74s3.07-5.36,5.57-5.67,5.72-.31,6.59,1.33,4.75,11.14,4.75,11.14a3.74,3.74,0,0,1-.36,3.22,31.8,31.8,0,0,1-3.32,3.88,2.84,2.84,0,0,0,0,3.37,61.5,61.5,0,0,0,7.36,9c4.09,4.1,12,7,12,7a2.4,2.4,0,0,0,1.84-.56c.71-.71,4.6-5.57,4.6-5.57a2.73,2.73,0,0,1,3.32-.66c2.07.95,11,5.41,11,5.41a1.94,1.94,0,0,1,1,2c0,1.58-.64,5.46-2,6.77s-5.14,5.35-10.9,5.35-19.46-4.68-26.77-12-13.79-14.71-15.32-21.46S634.57,293.52,636.46,290.74Z" transform="translate(-634.88 -284.91)"/></svg>